# xmcd
#
# Track frame offsets:
#	150
#	10496
#	24176
#	38123
#	49596
#	62856
#	79901
#	92274
#	106976
#	119866
#	133178
#	148139
#	161147
#	175961
#
# Disc length: 2508 seconds
#
# Revision: 1
# Processed by: cddbd v1.5.2PL0 Copyright (c) Steve Scherf et al.
# Submitted via: audiograbber 1.83.01
#
DISCID=c109ca0e
DTITLE=Mick Flavin - I'll Share My World With You
DYEAR=1900
DGENRE=
TTITLE0=Sam's Place
TTITLE1=She's Mine
TTITLE2=Too Old To Die Young
TTITLE3=Precious Jewel
TTITLE4=Blue Hills Of Breffni
TTITLE5=Like You Were Years Ago
TTITLE6=High As The Mountain
TTITLE7=Light In The Church
TTITLE8=Just One Time
TTITLE9=I Miss Alot Of Trains
TTITLE10=When I Lay Me Down
TTITLE11=I'll Share My World With You
TTITLE12=Papa's Wagon
TTITLE13=The Flame In My Heart
EXTD=
EXTT0=
EXTT1=
EXTT2=
EXTT3=
EXTT4=
EXTT5=
EXTT6=
EXTT7=
EXTT8=
EXTT9=
EXTT10=
EXTT11=
EXTT12=
EXTT13=
PLAYORDER=
